<?xml version="1.0" encoding="iso-8859-1"?>
<!-- Uploaded to: SVG Repo, www.svgrepo.com, Generator: SVG Repo Mixer Tools -->
<svg height="800px" width="800px" version="1.1" id="Layer_1" xmlns="http://www.w3.org/2000/svg" xmlns:xlink="http://www.w3.org/1999/xlink" 
	 viewBox="0 0 504.125 504.125" xml:space="preserve">
<path style="fill:#3A7F0D;" d="M339.772,0c0,0,44.536,108.954-146.337,182.138C89.719,221.893,10.059,323.789,105.173,481.193
	c7.877-70.357,41.653-225.485,186.888-260.884c0,0-135.176,50.546-147.117,279.347c69.459,9.752,232.361,16.305,280.726-125.062
	C489.536,187.817,339.772,0,339.772,0z"/>
<path style="fill:#49A010;" d="M145.007,498.704c147.456-58.849,254.748-196.71,269.556-361.283C384.418,56.107,339.772,0,339.772,0
	s44.536,108.954-146.337,182.138C89.719,221.893,10.059,323.789,105.173,481.193c7.877-70.357,41.653-225.485,186.888-260.884
	C292.053,220.31,157.279,270.73,145.007,498.704z"/>
<circle style="fill:#3A7F0D;" cx="90.459" cy="171.985" r="13.785"/>
<g>
	<circle style="fill:#49A010;" cx="133.782" cy="158.2" r="9.846"/>
	<circle style="fill:#49A010;" cx="124.921" cy="64.662" r="24.615"/>
	<circle style="fill:#49A010;" cx="200.736" cy="120.785" r="7.877"/>
	<circle style="fill:#49A010;" cx="266.713" cy="76.477" r="22.646"/>
</g>
</svg>



<svg
                        version="1.1"
                        id="Layer_1"
                        xmlns="http://www.w3.org/2000/svg"
                        xmlns:xlink="http://www.w3.org/1999/xlink"
                        x="0px"
                        y="0px"
                        viewBox="0 0 60 60"
                        style="enable-background: new 0 0 60 60"
                        xml:space="preserve"
                        class="card-front__icon"
                      >
                        <g>
                          <path
                            d="M49.7,22c-1.1,0-2,0.9-2,2v32.2c0,1.1,0.9,2,2,2s2-0.9,2-2V24C51.7,22.9,50.8,22,49.7,22z"
                          />
                          <path
                            d="M13,29.5c1.1,0,2-0.9,2-2s-0.9-2-2-2H5.7v-3h20.8c1.1,0,2-0.9,2-2s-0.9-2-2-2H5.7v-3h20.8c1.1,0,2-0.9,2-2s-0.9-2-2-2H5.7
                                         V7.1h24.8v15.3c0,1.1,0.9,2,2,2s2-0.9,2-2V5.1c0-1.1-0.9-2-2-2H3.7c-1.1,0-2,0.9-2,2v51c0,1.1,0.9,2,2,2s2-0.9,2-2V36.5H13
                                         c1.1,0,2-0.9,2-2s-0.9-2-2-2H5.7v-3H13z"
                          />
                          <path
                            d="M58,11.9c0-0.1,0-0.1,0-0.2c0-0.1,0-0.1-0.1-0.2c0-0.1,0-0.1-0.1-0.2c0-0.1-0.1-0.1-0.1-0.2c0,0,0-0.1-0.1-0.1c0,0,0,0,0,0
                                         c0-0.1-0.1-0.1-0.1-0.2c0,0-0.1-0.1-0.1-0.1c0,0-0.1-0.1-0.1-0.1c-0.1,0-0.1-0.1-0.2-0.1c0,0-0.1-0.1-0.2-0.1
                                         c-0.1,0-0.1-0.1-0.2-0.1c-0.1,0-0.1,0-0.2-0.1c-0.1,0-0.1,0-0.2-0.1c0,0-0.1,0-0.1,0c-0.1,0-0.2,0-0.2,0c0,0,0,0,0,0
                                         c0,0-0.1,0-0.1,0c-0.1,0-0.2,0-0.2,0c-0.1,0-0.1,0-0.2,0c-0.1,0-0.1,0-0.2,0.1c-0.1,0-0.1,0.1-0.2,0.1c0,0-0.1,0-0.1,0.1l-12.6,7.8
                                         c0,0,0,0,0,0c-0.1,0-0.1,0.1-0.2,0.1c0,0-0.1,0.1-0.1,0.1c0,0-0.1,0.1-0.1,0.2c0,0.1-0.1,0.1-0.1,0.2c0,0.1-0.1,0.1-0.1,0.2
                                         c0,0.1,0,0.1-0.1,0.2c0,0.1,0,0.1-0.1,0.2c0,0.1,0,0.1,0,0.2c0,0.1,0,0.1,0,0.2c0,0,0,0,0,0v5.4H22.1
                                         c-1.1,0-2,0.9-2,2v28.9c0,1.1,0.9,2,2,2s2-0.9,2-2V29.3h17.3v26.9c0,1.1,0.9,2,2,2s2-0.9,2-2V21l8.6-5.3v40.5c0,1.1,0.9,2,2,2
                                         s2-0.9,2-2V12.1C58,12,58,12,58,11.9z"
                          />
                          <path
                            d="M28,31L28,31c-1.1,0-2,0.9-2,2s0.9,2,2,2s2-0.9,2-2S29.1,31,28,31z"
                          />
                          <path
                            d="M33.5,31L33.5,31c-1.1,0-2,0.9-2,2s0.9,2,2,2c1.1,0,2-0.9,2-2S34.6,31,33.5,31z"
                          />
                          <path
                            d="M28,36L28,36c-1.1,0-2,0.9-2,2s0.9,2,2,2s2-0.9,2-2S29.1,36,28,36z"
                          />
                          <path
                            d="M33.5,36L33.5,36c-1.1,0-2,0.9-2,2s0.9,2,2,2c1.1,0,2-0.9,2-2S34.6,36,33.5,36z"
                          />
                        </g>
                      </svg>